<?xml version="1.0" standalone="no"?><!DOCTYPE svg PUBLIC "-//W3C//DTD SVG 1.1//EN" "http://www.w3.org/Graphics/SVG/1.1/DTD/svg11.dtd"><svg t="1683793322733" class="icon" viewBox="0 0 1024 1024" version="1.1" xmlns="http://www.w3.org/2000/svg" p-id="8967" xmlns:xlink="http://www.w3.org/1999/xlink" width="200" height="200"><path d="M921.6 1024H102.4a102.4 102.4 0 0 1-102.4-102.4V307.2h1024v614.4a102.4 102.4 0 0 1-102.4 102.4zM580.096 424.192l-163.072 409.6 57.088 22.784 163.072-409.6z m103.68 30.976l-43.52 43.52 142.336 142.08-142.336 142.336 43.52 43.52 185.8304-185.856-185.8304-185.6z m-318.7456 0L179.2 640.768l185.8304 185.856 43.52-43.52-142.3104-142.336 142.3104-142.08-43.52-43.52zM1024 256H0V102.4a102.4 102.4 0 0 1 102.4-102.4h819.2a102.4 102.4 0 0 1 102.4 102.4v153.6z" p-id="8968"></path></svg>